<svg width="18" height="18" viewBox="0 0 18 18" fill="none" xmlns="http://www.w3.org/2000/svg">
<path fill-rule="evenodd" clip-rule="evenodd" d="M12.5158 2.35168C11.3045 2.04885 10.0932 1.44318 9.18465 0.534668C8.27614 1.44318 7.0648 2.04885 5.85345 2.35168C6.15629 5.07721 7.0648 6.89422 9.18465 8.4084C11.3045 6.89422 12.5158 5.07721 12.5158 2.35168Z" fill="#FFC727"/>
<path fill-rule="evenodd" clip-rule="evenodd" d="M11.3044 13.6273L2.82495 3.63373V8.4791L9.48734 16.05L11.3044 13.6273Z" fill="#FBFBFB"/>
<path fill-rule="evenodd" clip-rule="evenodd" d="M12.2129 12.7188L15.847 8.47906V3.93652L10.0931 10.5989L12.2129 12.7188Z" fill="#FBFBFB"/>
<path fill-rule="evenodd" clip-rule="evenodd" d="M12.5157 14.2333V16.9588L15.8469 13.0219V10.2964L12.5157 14.2333Z" fill="#FBFBFB"/>
<path fill-rule="evenodd" clip-rule="evenodd" d="M6.15615 14.2333L2.82495 10.2964V13.0219L6.15615 16.9588V14.2333Z" fill="#FBFBFB"/>
</svg>
